<?xml version="1.0" encoding="UTF-8" ?>
<!DOCTYPE svg PUBLIC "-//W3C//DTD SVG 1.1//EN" "http://www.w3.org/Graphics/SVG/1.1/DTD/svg11.dtd">
<svg width="1024pt" height="1024pt" viewBox="0 0 1024 1024" version="1.1" xmlns="http://www.w3.org/2000/svg">
<g id="#974cfbfe">
<path fill="#974cfb" opacity="1.00" d=" M 467.72 7.62 C 554.70 0.71 644.37 13.35 723.88 50.14 C 767.02 69.98 807.74 95.31 843.68 126.39 C 907.10 179.80 956.57 249.90 985.24 327.82 C 997.83 362.22 1006.57 398.02 1011.43 434.35 C 1025.42 527.13 1014.74 623.92 978.54 710.66 C 966.54 740.99 950.32 769.44 933.00 797.00 C 916.01 820.66 898.29 844.01 877.25 864.25 C 866.49 875.22 855.70 886.19 843.39 895.44 C 774.27 952.78 689.95 991.75 601.29 1006.35 C 583.67 1009.61 565.82 1011.24 548.01 1012.94 C 514.34 1012.35 480.43 1015.08 447.00 1010.03 C 418.47 1007.38 390.60 1000.39 363.04 992.83 C 345.24 987.85 327.97 981.22 310.91 974.15 C 290.72 966.28 271.91 955.50 253.00 945.05 C 200.92 916.13 155.23 876.45 117.45 830.60 C 101.81 810.22 86.54 789.48 74.07 766.97 C 63.71 748.16 54.05 728.89 46.16 708.91 C 41.49 694.43 33.95 680.78 31.29 665.77 C 40.02 687.93 47.21 710.75 57.88 732.09 C 75.66 772.16 100.59 808.75 128.98 842.03 C 141.14 854.86 152.90 868.06 165.79 880.21 C 185.00 896.87 204.41 913.47 225.95 927.08 C 266.80 953.42 310.58 975.71 357.26 989.62 C 391.56 1000.36 427.09 1007.16 462.89 1010.24 C 485.85 1012.81 508.95 1011.83 532.01 1012.04 C 538.14 1012.56 544.05 1010.74 550.03 1009.76 C 549.74 1006.96 547.60 1005.00 545.43 1003.51 C 540.02 998.39 532.11 996.48 527.46 990.51 C 519.67 980.38 509.85 972.17 500.87 963.19 C 496.02 954.32 490.11 946.08 483.65 938.33 C 476.68 933.24 472.04 925.90 466.67 919.31 C 460.70 913.91 455.45 907.76 450.60 901.35 C 443.03 893.24 435.27 885.26 426.44 878.52 C 411.41 860.65 394.01 844.98 377.75 828.25 C 366.53 817.41 356.55 805.46 344.75 795.25 C 340.38 789.64 335.55 784.40 329.57 780.51 C 329.42 780.11 329.13 779.31 328.99 778.90 C 343.04 787.05 361.49 787.55 375.87 779.97 C 379.20 779.13 383.62 778.57 385.34 775.22 C 394.61 770.83 402.58 764.23 411.77 759.68 C 421.00 753.22 431.56 748.60 439.99 740.99 C 442.66 738.63 446.05 737.24 448.45 734.59 C 452.80 734.89 456.74 737.15 461.00 737.98 C 477.96 742.21 495.27 745.58 512.78 746.22 C 522.85 747.48 533.13 747.37 543.22 746.28 C 573.08 745.10 602.37 737.06 629.97 725.94 C 646.01 718.99 661.84 711.30 676.05 701.04 C 686.04 695.04 695.33 687.87 703.86 679.98 C 707.20 679.76 708.30 676.19 710.12 673.98 C 715.35 669.31 720.41 664.42 724.99 659.11 C 727.57 657.03 731.61 655.61 731.95 651.82 C 736.44 648.22 739.07 643.13 742.88 638.89 C 746.14 635.96 747.40 631.54 750.40 628.40 C 753.69 625.11 754.83 620.40 757.92 616.96 C 780.84 577.83 794.34 532.75 794.22 487.22 C 795.31 480.53 794.95 473.73 795.03 467.00 C 794.98 410.32 794.99 353.65 795.02 296.98 C 795.03 295.52 794.69 294.11 794.29 292.74 C 793.61 275.82 794.23 258.89 793.98 241.98 C 793.74 236.87 792.12 231.99 790.83 227.09 C 803.33 238.26 815.61 249.71 828.37 260.61 C 843.14 271.75 856.26 284.88 871.16 295.87 C 889.22 308.89 903.96 325.78 921.29 339.69 C 930.01 344.88 938.14 351.01 946.95 356.04 C 952.69 362.67 959.58 368.28 967.04 372.93 C 974.36 376.80 977.55 385.04 983.74 390.26 C 989.01 395.12 993.81 403.29 1001.82 402.92 C 1003.11 400.15 1003.08 397.00 1002.97 394.01 C 993.31 349.80 978.28 306.53 956.00 267.00 C 948.38 250.11 936.97 235.42 927.23 219.78 C 878.27 150.43 811.49 93.81 735.01 56.99 C 695.23 36.98 652.44 23.25 608.61 15.53 C 553.77 5.72 497.38 4.01 442.11 11.22 C 382.98 20.86 324.77 38.27 272.03 67.06 C 251.00 79.40 229.34 90.94 210.27 106.28 C 194.24 118.05 179.00 130.90 164.77 144.76 C 158.14 153.77 148.16 159.56 141.56 168.62 C 129.71 180.87 118.23 193.60 108.93 207.94 C 82.02 243.68 59.89 283.16 43.88 324.95 C 39.80 332.70 37.85 341.29 34.36 349.28 C 33.14 344.86 36.96 341.01 37.63 336.79 C 39.42 329.98 43.56 324.11 45.44 317.33 C 60.92 279.20 81.03 242.76 105.99 209.99 C 115.95 194.37 128.18 180.32 141.17 167.18 C 146.08 160.50 152.46 155.07 158.77 149.78 C 164.84 140.89 174.10 135.16 181.28 127.31 C 201.74 110.85 222.12 93.94 245.23 81.24 C 282.02 58.02 322.12 40.30 363.70 27.64 C 397.76 18.19 432.40 10.30 467.72 7.62 Z" />
<path fill="#974cfb" opacity="1.00" d=" M 733.89 251.76 C 743.19 247.01 752.81 242.16 762.79 239.11 C 765.48 244.37 763.72 251.72 763.73 257.75 C 762.61 264.44 763.05 271.24 762.98 278.00 C 763.04 346.00 762.96 414.00 763.01 482.00 C 762.87 485.64 763.40 489.43 762.55 493.04 C 761.79 495.27 761.60 497.53 761.99 499.82 C 762.80 507.46 760.66 514.88 759.50 522.35 C 753.83 555.31 740.05 586.61 720.94 613.96 C 718.68 616.93 716.83 620.38 713.71 622.60 C 711.58 623.86 709.27 625.44 708.84 628.07 L 708.56 628.88 C 706.68 629.24 704.98 630.73 705.00 632.75 C 704.72 633.26 704.14 634.29 703.85 634.80 C 695.99 640.83 688.80 647.97 682.81 655.87 C 682.36 656.12 681.46 656.62 681.01 656.88 C 678.41 657.32 676.84 659.60 675.60 661.71 C 662.72 673.55 647.40 682.94 631.67 690.64 C 631.20 690.74 630.27 690.95 629.80 691.06 C 627.89 691.12 626.10 692.09 624.98 693.63 C 613.72 700.40 600.89 704.65 588.31 708.41 C 546.93 720.62 502.03 720.40 460.90 707.21 C 459.84 706.95 458.90 706.49 458.05 705.84 C 457.63 703.25 460.68 702.07 462.74 701.66 C 463.91 700.54 464.40 698.68 465.94 698.01 C 470.11 696.49 472.94 692.78 475.19 689.12 C 475.63 688.85 476.51 688.31 476.96 688.04 C 486.77 682.17 492.77 671.75 501.24 664.18 C 502.56 662.87 503.85 661.53 505.18 660.22 C 509.42 656.46 514.78 653.39 517.05 647.97 C 517.51 646.88 518.35 646.03 519.12 645.15 C 521.63 643.00 525.38 641.58 526.13 637.99 C 526.37 637.54 526.87 636.63 527.11 636.18 C 529.15 634.88 531.78 633.71 532.13 631.00 C 532.37 630.54 532.87 629.64 533.12 629.18 C 535.14 627.87 537.81 626.72 538.11 624.00 C 538.43 623.53 539.07 622.59 539.40 622.12 C 541.27 621.75 543.02 620.29 542.99 618.25 C 544.40 616.26 546.20 614.47 547.40 612.12 C 549.31 611.75 550.99 610.23 551.06 608.19 L 551.32 607.17 C 553.24 606.84 554.87 605.30 555.03 603.31 C 555.17 601.62 557.74 601.67 557.92 599.96 C 558.42 597.45 561.86 597.02 561.28 593.93 C 562.96 593.29 565.00 592.44 565.05 590.32 C 567.03 588.21 568.83 585.81 570.09 583.05 C 574.75 577.67 578.73 571.73 582.81 565.84 C 596.29 545.58 609.56 525.35 621.41 504.47 C 624.28 502.60 624.01 498.61 626.05 496.08 C 630.05 492.05 630.24 485.38 634.55 481.52 C 637.99 474.98 640.37 467.83 644.52 461.64 C 645.92 456.07 649.87 451.09 648.89 445.07 C 648.27 442.96 647.26 440.96 646.96 438.77 C 647.02 436.73 645.26 434.97 643.23 435.04 C 641.81 434.91 640.58 434.20 639.27 433.77 C 636.57 433.05 633.25 432.16 630.78 433.83 C 629.94 434.40 629.02 434.78 628.03 434.97 C 622.42 438.18 617.47 443.93 614.94 450.06 C 613.16 453.90 611.29 458.09 607.70 460.59 C 605.28 461.93 603.55 464.39 603.02 467.09 C 600.09 473.22 594.83 478.55 590.60 483.86 C 588.68 484.26 587.00 485.76 586.94 487.81 L 586.67 488.83 C 584.72 489.19 583.04 490.75 582.95 492.80 L 582.68 493.82 C 580.77 494.17 579.04 495.67 579.01 497.71 L 578.82 498.56 C 575.44 500.14 573.68 503.61 571.28 506.26 C 565.93 513.23 559.16 519.21 555.00 527.02 L 554.64 527.68 C 552.12 529.75 548.57 531.52 547.90 535.02 C 547.61 535.44 547.04 536.28 546.75 536.70 C 544.10 538.66 540.63 540.52 539.88 544.01 C 539.62 544.46 539.12 545.36 538.87 545.81 C 534.44 549.25 529.08 552.68 526.87 558.01 C 525.11 560.98 522.16 563.19 519.82 565.78 C 510.63 572.10 504.54 582.19 495.11 588.04 C 495.07 587.28 494.99 585.78 494.95 585.02 C 494.91 579.00 495.03 573.00 495.03 567.00 C 494.95 564.17 495.21 561.38 494.40 558.69 C 491.75 542.00 488.37 525.18 481.41 509.67 C 480.29 506.79 478.88 504.01 478.11 501.03 C 477.21 497.67 476.42 493.59 473.32 491.58 C 468.99 485.67 465.83 478.68 461.00 473.00 C 459.62 470.09 456.09 468.19 455.96 464.78 C 456.09 462.71 454.28 461.29 452.46 460.85 L 452.06 460.11 C 447.35 452.15 440.35 445.75 433.23 439.92 C 434.96 435.85 437.48 432.16 439.17 428.08 C 440.34 426.44 442.50 425.57 442.44 423.12 C 444.32 422.78 445.91 421.27 446.04 419.31 C 446.14 417.89 447.91 417.71 448.69 416.75 C 449.06 415.52 449.03 414.06 450.24 413.29 C 452.57 411.72 455.47 409.95 456.14 407.01 C 456.62 405.43 458.09 404.41 459.18 403.23 C 465.30 398.77 470.63 393.26 475.41 387.41 L 476.02 387.05 C 480.85 383.71 486.20 380.21 489.44 375.19 L 490.29 375.00 C 492.28 374.98 493.76 373.30 494.12 371.44 L 494.93 371.16 C 497.53 370.72 499.11 368.45 500.38 366.35 C 502.23 366.15 503.51 365.05 504.48 363.53 C 513.61 358.04 521.97 351.31 531.33 346.42 C 536.35 344.00 540.61 340.10 546.02 338.15 C 548.35 337.34 550.92 336.51 552.41 334.39 L 553.10 334.17 C 556.76 333.20 560.40 331.77 563.33 329.31 C 570.93 325.71 578.29 321.47 586.04 318.22 C 588.41 317.97 590.51 316.80 592.33 315.32 C 595.88 313.62 599.32 311.54 603.04 310.23 C 605.41 309.97 607.52 308.81 609.32 307.29 C 614.92 304.55 620.72 302.22 626.31 299.43 C 631.31 298.75 634.88 294.46 639.89 293.76 C 647.68 289.79 655.52 285.42 663.89 282.76 C 680.21 274.53 697.23 267.47 714.04 260.23 C 716.41 259.97 718.52 258.81 720.32 257.29 C 724.72 255.20 729.16 252.99 733.89 251.76 Z" />
<path fill="#974cfb" opacity="1.00" d=" M 33.25 350.21 L 34.16 350.05 C 33.38 353.93 32.10 357.71 30.33 361.26 C 29.80 357.40 32.10 353.80 33.25 350.21 Z" />
<path fill="#974cfb" opacity="1.00" d=" M 28.37 369.28 C 27.92 367.05 28.01 362.87 30.19 362.05 C 29.96 364.54 29.23 366.94 28.37 369.28 Z" />
<path fill="#974cfb" opacity="1.00" d=" M 26.77 371.91 C 27.13 371.45 27.85 370.52 28.21 370.06 C 28.04 371.27 27.81 372.47 27.54 373.67 C 18.77 403.41 13.70 434.14 10.94 465.00 C 9.32 474.59 10.18 484.33 10.00 494.00 C 10.28 514.66 9.16 535.38 11.12 555.98 C 12.97 575.88 15.39 595.77 19.67 615.31 C 21.46 632.29 28.05 648.27 31.15 664.98 L 30.26 664.82 C 18.26 624.23 11.34 582.25 8.98 540.01 C 9.04 518.33 8.95 496.66 9.02 474.99 C 11.61 440.18 16.77 405.41 26.77 371.91 Z" />
<path fill="#974cfb" opacity="1.00" d=" M 303.14 379.82 C 302.06 377.50 304.50 378.06 305.99 377.98 C 307.72 378.75 309.40 379.62 311.17 380.31 C 310.33 385.26 305.80 380.93 303.14 379.82 Z" />
<path fill="#974cfb" opacity="1.00" d=" M 319.44 389.74 C 319.72 388.12 319.72 385.74 321.94 385.85 C 337.98 394.32 354.51 401.89 370.53 410.41 C 372.12 412.44 374.61 413.38 377.00 414.13 C 385.58 419.44 394.79 423.90 402.96 430.07 C 403.69 431.70 405.21 432.07 406.87 432.16 C 407.61 434.64 409.04 437.05 408.86 439.71 C 406.49 440.77 404.03 442.61 401.30 441.82 C 399.63 439.39 397.94 436.74 394.88 435.98 C 394.84 438.79 396.96 441.33 399.20 442.70 C 402.59 442.85 403.38 446.98 406.65 447.45 C 409.68 447.83 408.02 451.26 408.73 453.34 C 409.08 454.40 408.75 455.16 407.72 455.62 C 407.41 455.85 406.79 456.29 406.48 456.52 C 402.41 465.09 399.08 473.97 395.80 482.87 C 395.12 485.65 393.32 488.24 393.65 491.20 L 393.60 492.04 C 392.23 493.66 391.58 495.69 392.04 497.81 C 392.09 502.54 390.18 507.01 389.55 511.66 C 387.78 519.61 387.28 527.76 385.69 535.73 C 385.27 538.42 384.98 541.24 384.97 544.00 C 385.00 554.66 385.01 565.33 384.97 576.00 C 384.97 578.73 384.87 581.60 385.59 584.30 C 387.27 612.12 394.84 639.33 404.61 665.32 C 405.23 667.94 407.18 670.20 407.05 672.99 C 403.12 673.52 399.44 672.17 395.70 671.35 C 369.23 665.44 343.45 655.39 320.94 640.11 C 318.10 638.93 315.81 637.12 314.02 634.68 C 313.24 633.09 312.44 630.83 310.25 631.06 L 309.28 630.92 C 303.69 623.89 297.59 616.89 290.14 611.78 C 279.17 598.90 271.54 583.26 266.86 567.04 C 258.69 541.63 261.05 514.46 261.33 488.24 C 263.29 483.64 263.64 478.78 264.17 473.87 C 268.17 475.83 263.54 480.97 265.90 484.05 C 266.97 486.98 272.23 485.17 272.45 488.73 C 271.31 491.81 275.55 492.41 277.31 490.64 C 279.75 491.38 282.25 491.57 284.75 490.86 C 284.10 487.31 285.81 483.92 285.53 480.33 C 289.83 477.62 294.75 476.91 299.63 477.77 C 300.93 472.13 308.37 472.82 312.70 474.31 C 316.41 476.46 319.79 472.76 322.57 470.68 C 325.67 471.76 329.08 471.68 332.22 472.76 C 332.08 470.21 328.40 470.13 328.09 467.88 C 324.72 459.83 328.31 463.54 330.29 464.51 C 332.23 463.80 334.11 462.90 335.88 461.84 C 336.72 459.78 334.42 460.10 333.12 459.71 C 333.09 459.01 333.03 457.61 333.01 456.91 C 337.07 457.96 341.96 458.94 343.41 463.50 C 347.40 463.20 349.73 467.16 352.65 469.24 C 350.94 465.24 356.01 468.52 357.99 466.89 C 357.82 465.15 356.06 463.93 356.16 462.19 C 357.39 460.72 359.18 460.06 360.98 459.61 C 357.99 456.25 355.45 450.54 349.92 451.72 C 350.03 448.42 352.52 449.65 354.56 450.42 C 356.40 448.09 359.52 447.07 360.38 450.75 C 363.69 448.63 366.67 445.97 370.09 444.02 C 371.85 443.46 372.89 445.03 374.10 445.98 C 377.58 442.36 378.14 436.88 378.89 432.08 C 378.29 429.18 374.13 425.34 371.85 428.85 C 365.25 428.31 357.47 425.95 354.31 419.59 C 351.19 416.08 347.74 412.29 347.71 407.25 C 341.61 407.06 335.96 404.71 330.31 402.67 C 326.36 398.64 322.24 394.70 319.44 389.74 M 329.20 475.97 C 329.15 478.45 328.25 480.72 327.12 482.89 C 328.31 484.18 330.16 483.85 331.73 484.24 C 332.08 485.83 332.44 488.76 334.80 487.88 C 337.56 486.01 334.79 481.60 335.91 479.29 C 332.94 479.56 331.89 476.16 329.20 475.97 Z" />
<path fill="#974cfb" opacity="1.00" d=" M 633.03 448.03 C 633.07 445.56 635.62 446.52 637.09 447.00 C 637.10 448.46 636.92 449.99 635.89 451.12 C 634.68 450.30 632.51 449.97 633.03 448.03 Z" />
<path fill="#974cfb" opacity="1.00" d=" M 341.14 449.04 C 344.99 447.68 343.83 454.28 341.82 455.82 C 340.36 458.01 335.23 457.42 336.08 454.16 C 337.40 452.97 339.31 453.73 340.82 452.87 C 340.93 451.59 341.04 450.31 341.14 449.04 Z" />
<path fill="#974cfb" opacity="1.00" d=" M 426.23 450.28 C 429.41 452.69 432.72 455.60 434.87 459.00 C 435.34 461.58 437.59 463.15 439.71 464.39 C 441.56 465.18 440.42 467.88 442.39 468.58 C 445.77 470.33 445.91 474.82 449.12 476.85 C 454.30 485.59 460.83 493.59 465.01 502.99 C 474.45 522.04 480.63 542.71 482.01 563.99 C 482.02 572.32 481.94 580.66 482.02 589.00 C 482.10 591.58 482.02 594.16 481.78 596.76 C 482.53 602.30 479.70 606.48 476.10 610.13 C 474.76 611.75 473.32 613.30 471.84 614.79 C 466.98 618.60 462.15 622.58 458.77 627.83 C 457.61 628.96 456.50 630.24 455.03 630.95 C 449.84 633.44 446.03 638.18 442.75 642.82 C 441.59 643.91 440.56 645.34 439.00 645.87 C 435.89 646.46 434.37 649.46 432.79 651.86 C 431.93 652.59 431.15 653.58 430.00 653.87 C 427.41 654.33 425.85 656.60 424.58 658.70 C 422.54 660.32 421.24 664.29 418.19 663.91 C 406.70 638.45 399.81 610.85 398.00 583.00 C 397.94 580.17 398.19 577.39 397.38 574.70 C 397.05 564.85 396.25 554.77 397.45 544.96 C 398.17 542.69 398.35 540.43 398.01 538.17 C 400.27 510.99 408.14 484.51 419.95 459.98 C 420.63 458.70 421.30 457.34 422.58 456.57 C 423.29 454.23 423.32 450.93 426.23 450.28 Z" />
<path fill="#974cfb" opacity="1.00" d=" M 267.98 478.03 C 269.68 478.14 273.09 477.03 271.95 479.97 C 271.66 483.52 266.49 480.85 267.98 478.03 Z" />
<path fill="#974cfb" opacity="1.00" d=" M 605.36 484.38 C 607.93 483.12 609.58 479.46 612.79 480.08 C 613.97 481.63 614.86 483.40 615.62 485.21 C 614.62 488.24 613.02 491.05 612.05 494.12 C 607.52 503.71 601.86 513.08 595.71 521.61 C 590.50 526.17 587.96 533.13 583.65 538.55 C 578.76 538.64 573.76 536.60 572.43 531.28 C 573.34 527.16 575.46 523.42 578.38 520.39 C 583.28 516.79 586.03 510.99 589.14 505.92 L 589.46 505.13 C 591.32 504.75 592.91 503.27 593.04 501.31 C 596.29 498.14 598.12 493.78 601.63 490.71 C 601.84 487.84 605.38 487.35 605.36 484.38 Z" />
<path fill="#974cfb" opacity="1.00" d=" M 538.13 565.11 C 546.01 558.70 551.87 550.04 560.90 545.13 C 564.14 548.52 569.92 548.53 572.10 552.94 C 573.61 554.81 571.11 557.02 571.09 559.12 C 570.92 561.15 569.17 562.42 567.70 563.59 C 565.17 564.85 563.88 567.43 562.88 569.94 L 562.59 570.59 C 558.91 573.02 557.23 577.37 554.94 580.95 L 554.57 581.55 C 551.07 585.29 546.70 589.13 545.05 594.10 C 544.81 596.61 542.39 598.03 540.68 599.59 C 534.40 604.02 531.43 612.02 525.11 616.22 C 522.56 621.73 517.74 625.85 514.89 631.01 C 514.61 632.16 513.58 632.92 512.75 633.69 C 509.77 635.97 505.96 638.15 504.86 642.00 C 504.06 643.94 502.22 645.24 500.81 646.75 C 492.81 652.66 486.45 660.44 479.25 667.25 C 473.43 673.40 466.72 678.79 461.86 685.79 L 461.09 686.09 C 457.63 686.82 455.49 689.86 453.61 692.61 L 452.98 692.97 C 447.98 695.71 444.28 700.31 439.55 703.50 C 437.56 704.88 435.73 706.54 434.61 708.72 C 422.41 719.01 408.62 727.57 394.94 735.92 C 388.66 739.69 382.72 744.05 375.98 747.02 C 368.57 751.40 361.11 757.50 352.00 757.03 C 345.97 756.95 341.00 752.41 339.01 746.95 C 339.01 742.52 340.89 738.77 343.20 735.20 C 347.81 732.67 352.19 729.67 356.32 726.35 C 364.27 722.90 370.44 717.03 377.52 712.48 C 380.06 708.78 385.30 708.67 387.25 704.32 C 389.19 704.20 390.53 703.12 391.44 701.46 C 394.75 701.47 394.85 697.02 397.94 696.89 C 399.76 696.61 399.87 693.86 401.96 693.92 C 403.67 693.74 403.62 691.17 405.31 691.04 C 407.31 690.87 408.84 689.24 409.17 687.32 L 410.19 687.06 C 412.23 686.99 413.74 685.31 414.12 683.40 C 414.93 682.12 416.43 682.05 417.75 681.68 C 419.04 680.58 419.38 678.16 421.25 677.98 C 423.29 678.03 424.75 676.27 425.13 674.41 C 425.66 674.05 426.72 673.34 427.25 672.99 C 429.28 673.01 430.74 671.29 431.13 669.44 L 431.90 669.08 C 434.99 668.39 436.63 665.67 438.39 663.32 C 438.78 662.99 439.56 662.34 439.94 662.01 C 444.43 660.14 447.66 656.16 450.19 652.12 C 450.63 651.85 451.52 651.31 451.96 651.04 C 455.76 649.79 458.16 646.38 460.24 643.17 C 461.40 642.07 462.44 640.65 464.00 640.13 C 466.51 639.56 468.59 637.51 469.13 634.99 C 470.54 632.36 473.02 630.32 475.30 628.40 C 479.56 627.52 479.58 621.44 483.96 620.04 C 486.69 619.09 489.47 616.98 490.09 614.02 C 490.33 612.27 493.17 613.56 493.60 611.66 C 495.11 607.22 499.20 604.63 502.18 601.24 C 513.92 588.96 527.88 578.75 538.13 565.11 Z" />
<path fill="#974cfb" opacity="1.00" d=" M 303.89 666.04 C 305.03 666.22 306.17 666.45 307.30 666.72 C 309.38 668.67 311.80 670.20 314.21 671.71 C 328.54 678.71 342.64 686.38 357.86 691.34 C 358.40 693.00 356.73 693.76 355.63 694.58 C 351.77 696.80 348.00 699.16 344.16 701.42 C 337.88 699.11 333.49 693.64 328.28 689.72 C 320.41 681.54 311.18 674.77 303.89 666.04 Z" />
</g>
<g id="#b07bfdff">
<path fill="#b07bfd" opacity="1.00" d=" M 442.11 11.22 C 497.38 4.01 553.77 5.72 608.61 15.53 C 652.44 23.25 695.23 36.98 735.01 56.99 C 811.49 93.81 878.27 150.43 927.23 219.78 C 936.97 235.42 948.38 250.11 956.00 267.00 C 978.28 306.53 993.31 349.80 1002.97 394.01 C 1003.08 397.00 1003.11 400.15 1001.82 402.92 C 993.81 403.29 989.01 395.12 983.74 390.26 C 977.55 385.04 974.36 376.80 967.04 372.93 C 959.58 368.28 952.69 362.67 946.95 356.04 C 938.14 351.01 930.01 344.88 921.29 339.69 C 903.96 325.78 889.22 308.89 871.16 295.87 C 856.26 284.88 843.14 271.75 828.37 260.61 C 815.61 249.71 803.33 238.26 790.83 227.09 C 785.81 221.45 780.90 214.83 773.37 212.55 C 763.43 209.25 752.44 210.71 743.10 215.14 C 687.42 238.93 632.14 263.64 577.28 289.26 C 542.09 305.32 506.93 322.36 476.40 346.43 C 461.21 357.34 448.40 371.04 435.31 384.29 C 429.71 391.03 423.49 397.31 418.95 404.85 C 403.54 393.99 386.32 386.30 370.00 377.01 C 349.76 366.91 329.59 356.68 309.28 346.73 C 295.32 340.95 282.51 332.60 268.11 327.85 C 249.50 322.30 228.55 338.76 229.06 358.00 C 228.91 413.00 229.05 468.00 228.99 523.01 C 229.81 574.48 253.16 626.07 294.66 657.38 C 298.46 661.06 303.58 663.04 307.30 666.72 C 306.17 666.45 305.03 666.22 303.89 666.04 C 311.18 674.77 320.41 681.54 328.28 689.72 C 333.49 693.64 337.88 699.11 344.16 701.42 C 331.72 709.40 317.19 716.66 311.02 730.99 C 306.71 742.98 307.69 757.63 316.69 767.27 C 319.80 772.14 324.94 774.94 328.99 778.90 C 329.13 779.31 329.42 780.11 329.57 780.51 C 335.55 784.40 340.38 789.64 344.75 795.25 C 356.55 805.46 366.53 817.41 377.75 828.25 C 394.01 844.98 411.41 860.65 426.44 878.52 C 435.27 885.26 443.03 893.24 450.60 901.35 C 455.45 907.76 460.70 913.91 466.67 919.31 C 472.04 925.90 476.68 933.24 483.65 938.33 C 490.11 946.08 496.02 954.32 500.87 963.19 C 509.85 972.17 519.67 980.38 527.46 990.51 C 532.11 996.48 540.02 998.39 545.43 1003.51 C 547.60 1005.00 549.74 1006.96 550.03 1009.76 C 544.05 1010.74 538.14 1012.56 532.01 1012.04 C 508.95 1011.83 485.85 1012.81 462.89 1010.24 C 427.09 1007.16 391.56 1000.36 357.26 989.62 C 310.58 975.71 266.80 953.42 225.95 927.08 C 204.41 913.47 185.00 896.87 165.79 880.21 C 152.90 868.06 141.14 854.86 128.98 842.03 C 100.59 808.75 75.66 772.16 57.88 732.09 C 47.21 710.75 40.02 687.93 31.29 665.77 L 31.15 664.98 C 28.05 648.27 21.46 632.29 19.67 615.31 C 15.39 595.77 12.97 575.88 11.12 555.98 C 9.16 535.38 10.28 514.66 10.00 494.00 C 10.18 484.33 9.32 474.59 10.94 465.00 C 13.70 434.14 18.77 403.41 27.54 373.67 C 27.81 372.47 28.04 371.27 28.21 370.06 L 28.37 369.28 C 29.23 366.94 29.96 364.54 30.19 362.05 L 30.33 361.26 C 32.10 357.71 33.38 353.93 34.16 350.05 L 34.36 349.28 C 37.85 341.29 39.80 332.70 43.88 324.95 C 59.89 283.16 82.02 243.68 108.93 207.94 C 118.23 193.60 129.71 180.87 141.56 168.62 C 148.16 159.56 158.14 153.77 164.77 144.76 C 179.00 130.90 194.24 118.05 210.27 106.28 C 229.34 90.94 251.00 79.40 272.03 67.06 C 324.77 38.27 382.98 20.86 442.11 11.22 Z" />
<path fill="#b07bfd" opacity="1.00" d=" M 714.04 260.23 C 714.93 258.22 718.10 257.18 720.32 257.29 C 718.52 258.81 716.41 259.97 714.04 260.23 Z" />
<path fill="#b07bfd" opacity="1.00" d=" M 762.98 278.00 C 763.05 271.24 762.61 264.44 763.73 257.75 C 764.32 332.48 763.88 407.24 763.96 481.98 L 763.01 482.00 C 762.96 414.00 763.04 346.00 762.98 278.00 Z" />
<path fill="#b07bfd" opacity="1.00" d=" M 794.29 292.74 C 794.69 294.11 795.03 295.52 795.02 296.98 C 794.99 353.65 794.98 410.32 795.03 467.00 C 794.95 473.73 795.31 480.53 794.22 487.22 C 793.89 422.40 793.77 357.56 794.29 292.74 Z" />
<path fill="#b07bfd" opacity="1.00" d=" M 603.04 310.23 C 603.93 308.22 607.10 307.18 609.32 307.29 C 607.52 308.81 605.41 309.97 603.04 310.23 Z" />
<path fill="#b07bfd" opacity="1.00" d=" M 586.04 318.22 C 586.94 316.23 590.11 315.15 592.33 315.32 C 590.51 316.80 588.41 317.97 586.04 318.22 Z" />
<path fill="#b07bfd" opacity="1.00" d=" M 553.10 334.17 C 554.98 331.55 559.77 329.52 563.33 329.31 C 560.40 331.77 556.76 333.20 553.10 334.17 Z" />
<path fill="#b07bfd" opacity="1.00" d=" M 546.02 338.15 C 546.79 335.68 550.11 334.84 552.41 334.39 C 550.92 336.51 548.35 337.34 546.02 338.15 Z" />
<path fill="#b07bfd" opacity="1.00" d=" M 261.18 356.03 C 268.40 358.60 275.01 362.79 282.00 366.00 C 287.20 368.93 293.18 370.35 298.02 373.92 C 299.62 374.06 298.16 377.46 299.79 376.75 C 299.99 373.77 305.05 376.66 305.99 377.98 C 304.50 378.06 302.06 377.50 303.14 379.82 C 305.80 380.93 310.33 385.26 311.17 380.31 C 314.75 381.97 319.07 383.26 321.94 385.85 C 319.72 385.74 319.72 388.12 319.44 389.74 C 322.24 394.70 326.36 398.64 330.31 402.67 C 335.96 404.71 341.61 407.06 347.71 407.25 C 347.74 412.29 351.19 416.08 354.31 419.59 C 357.47 425.95 365.25 428.31 371.85 428.85 C 374.13 425.34 378.29 429.18 378.89 432.08 C 378.14 436.88 377.58 442.36 374.10 445.98 C 372.89 445.03 371.85 443.46 370.09 444.02 C 366.67 445.97 363.69 448.63 360.38 450.75 C 359.52 447.07 356.40 448.09 354.56 450.42 C 352.52 449.65 350.03 448.42 349.92 451.72 C 355.45 450.54 357.99 456.25 360.98 459.61 C 359.18 460.06 357.39 460.72 356.16 462.19 C 356.06 463.93 357.82 465.15 357.99 466.89 C 356.01 468.52 350.94 465.24 352.65 469.24 C 349.73 467.16 347.40 463.20 343.41 463.50 C 341.96 458.94 337.07 457.96 333.01 456.91 C 333.03 457.61 333.09 459.01 333.12 459.71 C 334.42 460.10 336.72 459.78 335.88 461.84 C 334.11 462.90 332.23 463.80 330.29 464.51 C 328.31 463.54 324.72 459.83 328.09 467.88 C 328.40 470.13 332.08 470.21 332.22 472.76 C 329.08 471.68 325.67 471.76 322.57 470.68 C 319.79 472.76 316.41 476.46 312.70 474.31 C 308.37 472.82 300.93 472.13 299.63 477.77 C 294.75 476.91 289.83 477.62 285.53 480.33 C 285.81 483.92 284.10 487.31 284.75 490.86 C 282.25 491.57 279.75 491.38 277.31 490.64 C 275.55 492.41 271.31 491.81 272.45 488.73 C 272.23 485.17 266.97 486.98 265.90 484.05 C 263.54 480.97 268.17 475.83 264.17 473.87 C 263.64 478.78 263.29 483.64 261.33 488.24 C 259.23 478.64 260.17 468.74 260.00 459.00 C 260.23 443.92 259.48 428.82 260.47 413.76 C 259.51 398.53 260.21 383.25 259.98 367.99 C 260.29 364.03 259.41 359.74 261.18 356.03 M 341.14 449.04 C 341.04 450.31 340.93 451.59 340.82 452.87 C 339.31 453.73 337.40 452.97 336.08 454.16 C 335.23 457.42 340.36 458.01 341.82 455.82 C 343.83 454.28 344.99 447.68 341.14 449.04 M 267.98 478.03 C 266.49 480.85 271.66 483.52 271.95 479.97 C 273.09 477.03 269.68 478.14 267.98 478.03 Z" />
<path fill="#b07bfd" opacity="1.00" d=" M 494.93 371.16 C 496.22 369.25 497.94 366.47 500.38 366.35 C 499.11 368.45 497.53 370.72 494.93 371.16 Z" />
<path fill="#b07bfd" opacity="1.00" d=" M 490.29 375.00 C 490.24 373.36 492.41 371.11 494.12 371.44 C 493.76 373.30 492.28 374.98 490.29 375.00 Z" />
<path fill="#b07bfd" opacity="1.00" d=" M 476.02 387.05 C 479.65 382.50 484.15 377.61 489.44 375.19 C 486.20 380.21 480.85 383.71 476.02 387.05 Z" />
<path fill="#b07bfd" opacity="1.00" d=" M 463.24 398.23 C 467.50 395.11 470.48 388.94 475.41 387.41 C 470.63 393.26 465.30 398.77 459.18 403.23 C 458.27 400.34 462.12 400.25 463.24 398.23 Z" />
<path fill="#b07bfd" opacity="1.00" d=" M 450.24 413.29 C 450.97 410.66 453.72 408.35 456.14 407.01 C 455.47 409.95 452.57 411.72 450.24 413.29 Z" />
<path fill="#b07bfd" opacity="1.00" d=" M 370.53 410.41 C 372.86 410.79 376.14 411.68 377.00 414.13 C 374.61 413.38 372.12 412.44 370.53 410.41 Z" />
<path fill="#b07bfd" opacity="1.00" d=" M 442.44 423.12 C 442.10 421.40 444.37 419.21 446.04 419.31 C 445.91 421.27 444.32 422.78 442.44 423.12 Z" />
<path fill="#b07bfd" opacity="1.00" d=" M 431.66 437.68 C 434.28 434.79 435.70 429.88 439.17 428.08 C 437.48 432.16 434.96 435.85 433.23 439.92 C 440.35 445.75 447.35 452.15 452.06 460.11 C 445.52 455.59 442.17 447.80 435.27 443.69 C 434.15 441.88 429.57 440.28 431.66 437.68 Z" />
<path fill="#b07bfd" opacity="1.00" d=" M 406.87 432.16 C 410.47 434.01 413.40 437.08 416.87 439.23 C 417.64 441.66 415.14 443.23 414.23 445.22 C 412.13 447.71 411.84 451.79 408.73 453.34 C 408.02 451.26 409.68 447.83 406.65 447.45 C 403.38 446.98 402.59 442.85 399.20 442.70 C 396.96 441.33 394.84 438.79 394.88 435.98 C 397.94 436.74 399.63 439.39 401.30 441.82 C 404.03 442.61 406.49 440.77 408.86 439.71 C 409.04 437.05 407.61 434.64 406.87 432.16 Z" />
<path fill="#b07bfd" opacity="1.00" d=" M 630.78 433.83 C 633.25 432.16 636.57 433.05 639.27 433.77 C 636.44 434.07 633.60 434.09 630.78 433.83 Z" />
<path fill="#b07bfd" opacity="1.00" d=" M 614.94 450.06 C 617.47 443.93 622.42 438.18 628.03 434.97 C 626.79 436.71 625.95 438.90 623.99 439.99 C 619.76 442.10 619.16 447.93 614.94 450.06 Z" />
<path fill="#b07bfd" opacity="1.00" d=" M 643.23 435.04 C 645.26 434.97 647.02 436.73 646.96 438.77 C 645.34 438.64 643.35 436.65 643.23 435.04 Z" />
<path fill="#b07bfd" opacity="1.00" d=" M 630.71 447.72 C 632.09 445.40 635.96 443.37 637.09 447.00 C 635.62 446.52 633.07 445.56 633.03 448.03 C 632.51 449.97 634.68 450.30 635.89 451.12 C 635.48 454.30 633.26 457.07 631.97 459.99 C 626.43 469.50 621.86 479.57 615.78 488.78 C 614.53 490.55 614.06 492.98 612.05 494.12 C 613.02 491.05 614.62 488.24 615.62 485.21 C 614.86 483.40 613.97 481.63 612.79 480.08 C 609.58 479.46 607.93 483.12 605.36 484.38 C 605.56 481.23 609.34 479.39 610.63 476.66 C 616.99 466.79 623.91 457.27 630.71 447.72 Z" />
<path fill="#b07bfd" opacity="1.00" d=" M 406.48 456.52 C 406.79 456.29 407.41 455.85 407.72 455.62 C 403.86 467.53 397.88 478.74 394.63 490.89 L 393.65 491.20 C 393.32 488.24 395.12 485.65 395.80 482.87 C 399.08 473.97 402.41 465.09 406.48 456.52 Z" />
<path fill="#b07bfd" opacity="1.00" d=" M 434.87 459.00 C 436.83 460.19 439.46 461.99 439.71 464.39 C 437.59 463.15 435.34 461.58 434.87 459.00 Z" />
<path fill="#b07bfd" opacity="1.00" d=" M 452.46 460.85 C 454.28 461.29 456.09 462.71 455.96 464.78 C 454.34 464.68 452.11 462.57 452.46 460.85 Z" />
<path fill="#b07bfd" opacity="1.00" d=" M 603.02 467.09 C 603.55 464.39 605.28 461.93 607.70 460.59 C 607.04 463.14 605.31 465.67 603.02 467.09 Z" />
<path fill="#b07bfd" opacity="1.00" d=" M 329.20 475.97 C 331.89 476.16 332.94 479.56 335.91 479.29 C 334.79 481.60 337.56 486.01 334.80 487.88 C 332.44 488.76 332.08 485.83 331.73 484.24 C 330.16 483.85 328.31 484.18 327.12 482.89 C 328.25 480.72 329.15 478.45 329.20 475.97 Z" />
<path fill="#b07bfd" opacity="1.00" d=" M 586.94 487.81 C 587.00 485.76 588.68 484.26 590.60 483.86 C 590.82 485.62 588.61 487.71 586.94 487.81 Z" />
<path fill="#b07bfd" opacity="1.00" d=" M 582.95 492.80 C 583.04 490.75 584.72 489.19 586.67 488.83 C 586.79 490.60 584.63 492.66 582.95 492.80 Z" />
<path fill="#b07bfd" opacity="1.00" d=" M 392.04 497.81 C 391.58 495.69 392.23 493.66 393.60 492.04 C 394.56 493.77 393.53 497.02 392.04 497.81 Z" />
<path fill="#b07bfd" opacity="1.00" d=" M 473.32 491.58 C 476.42 493.59 477.21 497.67 478.11 501.03 C 475.47 499.07 474.37 494.77 473.32 491.58 Z" />
<path fill="#b07bfd" opacity="1.00" d=" M 761.99 499.82 C 761.60 497.53 761.79 495.27 762.55 493.04 C 763.35 494.85 764.23 499.07 761.99 499.82 Z" />
<path fill="#b07bfd" opacity="1.00" d=" M 579.01 497.71 C 579.04 495.67 580.77 494.17 582.68 493.82 C 582.83 495.55 580.68 497.69 579.01 497.71 Z" />
<path fill="#b07bfd" opacity="1.00" d=" M 571.28 506.26 C 573.68 503.61 575.44 500.14 578.82 498.56 C 574.48 506.08 567.52 512.20 562.22 519.21 C 559.80 521.80 558.12 525.16 555.00 527.02 C 559.16 519.21 565.93 513.23 571.28 506.26 Z" />
<path fill="#b07bfd" opacity="1.00" d=" M 589.46 505.13 C 589.09 503.41 591.37 501.20 593.04 501.31 C 592.91 503.27 591.32 504.75 589.46 505.13 Z" />
<path fill="#b07bfd" opacity="1.00" d=" M 581.06 515.07 C 583.72 512.04 585.46 507.91 589.14 505.92 C 586.03 510.99 583.28 516.79 578.38 520.39 C 575.46 523.42 573.34 527.16 572.43 531.28 C 573.76 536.60 578.76 538.64 583.65 538.55 C 587.96 533.13 590.50 526.17 595.71 521.61 C 590.94 532.04 583.06 541.12 576.95 550.94 C 574.86 553.52 573.99 557.23 571.09 559.12 C 571.11 557.02 573.61 554.81 572.10 552.94 C 569.92 548.53 564.14 548.52 560.90 545.13 C 551.87 550.04 546.01 558.70 538.13 565.11 C 527.88 578.75 513.92 588.96 502.18 601.24 C 502.99 596.34 508.37 593.95 511.24 590.24 C 519.52 583.59 526.69 575.71 534.21 568.23 C 536.26 567.50 535.44 564.91 536.99 563.93 C 546.29 556.59 553.23 546.85 561.25 538.25 C 568.46 531.04 574.39 522.74 581.06 515.07 Z" />
<path fill="#b07bfd" opacity="1.00" d=" M 547.90 535.02 C 548.57 531.52 552.12 529.75 554.64 527.68 C 553.87 530.68 550.57 533.23 547.90 535.02 Z" />
<path fill="#b07bfd" opacity="1.00" d=" M 384.97 544.00 C 384.98 541.24 385.27 538.42 385.69 535.73 C 385.52 538.17 387.31 543.13 384.97 544.00 Z" />
<path fill="#b07bfd" opacity="1.00" d=" M 539.88 544.01 C 540.63 540.52 544.10 538.66 546.75 536.70 C 545.68 539.67 542.64 542.27 539.88 544.01 Z" />
<path fill="#b07bfd" opacity="1.00" d=" M 397.45 544.96 C 396.64 543.13 395.76 538.92 398.01 538.17 C 398.35 540.43 398.17 542.69 397.45 544.96 Z" />
<path fill="#b07bfd" opacity="1.00" d=" M 526.87 558.01 C 529.08 552.68 534.44 549.25 538.87 545.81 C 538.84 546.28 538.79 547.22 538.77 547.69 C 534.02 550.15 531.41 555.37 526.87 558.01 Z" />
<path fill="#b07bfd" opacity="1.00" d=" M 494.40 558.69 C 495.21 561.38 494.95 564.17 495.03 567.00 C 492.70 566.12 494.42 561.12 494.40 558.69 Z" />
<path fill="#b07bfd" opacity="1.00" d=" M 482.01 563.99 L 482.98 564.01 C 483.04 572.33 483.04 580.66 482.98 588.99 L 482.02 589.00 C 481.94 580.66 482.02 572.32 482.01 563.99 Z" />
<path fill="#b07bfd" opacity="1.00" d=" M 562.88 569.94 C 563.88 567.43 565.17 564.85 567.70 563.59 C 566.97 566.03 565.39 568.97 562.88 569.94 Z" />
<path fill="#b07bfd" opacity="1.00" d=" M 495.11 588.04 C 504.54 582.19 510.63 572.10 519.82 565.78 C 520.80 568.35 517.66 568.98 516.28 570.33 C 508.70 577.42 501.77 585.20 494.08 592.18 C 494.06 590.39 494.02 586.80 494.00 585.01 L 494.95 585.02 C 494.99 585.78 495.07 587.28 495.11 588.04 Z" />
<path fill="#b07bfd" opacity="1.00" d=" M 554.94 580.95 C 557.23 577.37 558.91 573.02 562.59 570.59 C 561.50 574.57 557.95 578.50 554.94 580.95 Z" />
<path fill="#b07bfd" opacity="1.00" d=" M 397.38 574.70 C 398.19 577.39 397.94 580.17 398.00 583.00 C 395.72 582.09 397.42 577.13 397.38 574.70 Z" />
<path fill="#b07bfd" opacity="1.00" d=" M 384.97 576.00 C 387.28 576.87 385.59 581.87 385.59 584.30 C 384.87 581.60 384.97 578.73 384.97 576.00 Z" />
<path fill="#b07bfd" opacity="1.00" d=" M 545.05 594.10 C 546.70 589.13 551.07 585.29 554.57 581.55 C 552.68 586.03 549.00 590.80 545.05 594.10 Z" />
<path fill="#b07bfd" opacity="1.00" d=" M 561.28 593.93 C 560.41 592.00 563.58 590.46 565.05 590.32 C 565.00 592.44 562.96 593.29 561.28 593.93 Z" />
<path fill="#b07bfd" opacity="1.00" d=" M 476.10 610.13 C 479.70 606.48 482.53 602.30 481.78 596.76 C 483.34 601.46 481.88 609.56 476.10 610.13 Z" />
<path fill="#b07bfd" opacity="1.00" d=" M 525.11 616.22 C 531.43 612.02 534.40 604.02 540.68 599.59 C 537.93 605.75 531.87 610.34 528.15 616.17 C 526.00 620.51 521.01 622.92 519.53 627.58 C 517.99 628.72 516.54 630.02 514.89 631.01 C 517.74 625.85 522.56 621.73 525.11 616.22 Z" />
<path fill="#b07bfd" opacity="1.00" d=" M 551.32 607.17 C 551.16 605.43 553.33 603.26 555.03 603.31 C 554.87 605.30 553.24 606.84 551.32 607.17 Z" />
<path fill="#b07bfd" opacity="1.00" d=" M 547.40 612.12 C 547.19 610.36 549.38 608.28 551.06 608.19 C 550.99 610.23 549.31 611.75 547.40 612.12 Z" />
<path fill="#b07bfd" opacity="1.00" d=" M 290.14 611.78 C 297.59 616.89 303.69 623.89 309.28 630.92 C 308.79 630.88 307.80 630.80 307.31 630.76 C 302.33 624.53 296.78 618.29 290.26 613.61 C 290.23 613.16 290.17 612.24 290.14 611.78 Z" />
<path fill="#b07bfd" opacity="1.00" d=" M 483.96 620.04 C 485.63 617.76 487.48 615.26 490.09 614.02 C 489.47 616.98 486.69 619.09 483.96 620.04 Z" />
<path fill="#b07bfd" opacity="1.00" d=" M 458.77 627.83 C 462.15 622.58 466.98 618.60 471.84 614.79 C 471.84 615.29 471.85 616.28 471.86 616.78 C 467.55 619.76 463.43 623.25 460.69 627.78 C 460.21 627.79 459.25 627.82 458.77 627.83 Z" />
<path fill="#b07bfd" opacity="1.00" d=" M 539.40 622.12 C 539.16 620.40 541.34 618.28 542.99 618.25 C 543.02 620.29 541.27 621.75 539.40 622.12 Z" />
<path fill="#b07bfd" opacity="1.00" d=" M 708.84 628.07 C 709.27 625.44 711.58 623.86 713.71 622.60 C 713.48 625.04 710.78 626.77 708.84 628.07 Z" />
<path fill="#b07bfd" opacity="1.00" d=" M 533.12 629.18 C 532.80 626.35 536.42 625.67 538.11 624.00 C 537.81 626.72 535.14 627.87 533.12 629.18 Z" />
<path fill="#b07bfd" opacity="1.00" d=" M 705.00 632.75 C 704.98 630.73 706.68 629.24 708.56 628.88 C 708.87 630.59 706.63 632.72 705.00 632.75 Z" />
<path fill="#b07bfd" opacity="1.00" d=" M 310.25 631.06 C 312.44 630.83 313.24 633.09 314.02 634.68 C 312.05 635.61 310.58 632.48 310.25 631.06 Z" />
<path fill="#b07bfd" opacity="1.00" d=" M 442.75 642.82 C 446.03 638.18 449.84 633.44 455.03 630.95 C 452.10 635.32 447.21 638.11 444.61 642.75 C 444.15 642.77 443.22 642.81 442.75 642.82 Z" />
<path fill="#b07bfd" opacity="1.00" d=" M 527.11 636.18 C 526.81 633.35 530.42 632.66 532.13 631.00 C 531.78 633.71 529.15 634.88 527.11 636.18 Z" />
<path fill="#b07bfd" opacity="1.00" d=" M 504.86 642.00 C 505.96 638.15 509.77 635.97 512.75 633.69 C 511.34 636.97 507.97 639.94 504.86 642.00 Z" />
<path fill="#b07bfd" opacity="1.00" d=" M 464.00 640.13 C 465.10 637.98 467.00 636.12 469.13 634.99 C 468.59 637.51 466.51 639.56 464.00 640.13 Z" />
<path fill="#b07bfd" opacity="1.00" d=" M 682.81 655.87 C 688.80 647.97 695.99 640.83 703.85 634.80 C 703.83 635.27 703.79 636.22 703.77 636.69 C 696.71 642.17 690.17 648.71 684.69 655.77 C 684.22 655.79 683.28 655.84 682.81 655.87 Z" />
<path fill="#b07bfd" opacity="1.00" d=" M 519.15 643.23 C 521.72 641.80 523.65 639.51 526.13 637.99 C 525.38 641.58 521.63 643.00 519.12 645.15 C 519.13 644.67 519.14 643.71 519.15 643.23 Z" />
<path fill="#b07bfd" opacity="1.00" d=" M 458.39 643.24 C 458.85 643.23 459.77 643.19 460.24 643.17 C 458.16 646.38 455.76 649.79 451.96 651.04 C 453.82 648.21 456.86 646.31 458.39 643.24 Z" />
<path fill="#b07bfd" opacity="1.00" d=" M 432.79 651.86 C 434.37 649.46 435.89 646.46 439.00 645.87 C 437.06 647.87 435.78 651.85 432.79 651.86 Z" />
<path fill="#b07bfd" opacity="1.00" d=" M 479.25 667.25 C 486.45 660.44 492.81 652.66 500.81 646.75 C 500.80 647.24 500.79 648.20 500.78 648.69 C 488.58 658.68 478.22 670.88 466.75 681.75 C 464.96 683.06 464.68 686.77 461.86 685.79 C 466.72 678.79 473.43 673.40 479.25 667.25 Z" />
<path fill="#b07bfd" opacity="1.00" d=" M 506.33 657.33 C 510.45 654.88 513.12 650.64 517.05 647.97 C 514.78 653.39 509.42 656.46 505.18 660.22 C 504.77 658.87 505.16 657.91 506.33 657.33 Z" />
<path fill="#b07bfd" opacity="1.00" d=" M 448.39 652.26 C 448.84 652.23 449.74 652.16 450.19 652.12 C 447.66 656.16 444.43 660.14 439.94 662.01 C 442.36 658.43 446.32 656.12 448.39 652.26 Z" />
<path fill="#b07bfd" opacity="1.00" d=" M 724.99 659.11 C 725.72 655.62 729.80 654.40 731.95 651.82 C 731.61 655.61 727.57 657.03 724.99 659.11 Z" />
<path fill="#b07bfd" opacity="1.00" d=" M 424.58 658.70 C 425.85 656.60 427.41 654.33 430.00 653.87 C 428.79 655.83 426.99 658.50 424.58 658.70 Z" />
<path fill="#b07bfd" opacity="1.00" d=" M 675.60 661.71 C 676.84 659.60 678.41 657.32 681.01 656.88 C 679.78 658.83 678.00 661.47 675.60 661.71 Z" />
<path fill="#b07bfd" opacity="1.00" d=" M 431.90 669.08 C 433.76 667.10 435.42 663.47 438.39 663.32 C 436.63 665.67 434.99 668.39 431.90 669.08 Z" />
<path fill="#b07bfd" opacity="1.00" d=" M 499.28 664.23 C 499.77 664.22 500.75 664.20 501.24 664.18 C 492.77 671.75 486.77 682.17 476.96 688.04 C 484.56 680.28 491.51 671.85 499.28 664.23 Z" />
<path fill="#b07bfd" opacity="1.00" d=" M 427.25 672.99 C 427.28 671.35 429.41 669.12 431.13 669.44 C 430.74 671.29 429.28 673.01 427.25 672.99 Z" />
<path fill="#b07bfd" opacity="1.00" d=" M 421.25 677.98 C 421.29 676.34 423.41 674.15 425.13 674.41 C 424.75 676.27 423.29 678.03 421.25 677.98 Z" />
<path fill="#b07bfd" opacity="1.00" d=" M 703.86 679.98 C 705.94 678.00 706.96 674.41 710.12 673.98 C 708.30 676.19 707.20 679.76 703.86 679.98 Z" />
<path fill="#b07bfd" opacity="1.00" d=" M 410.19 687.06 C 410.28 685.38 412.37 683.18 414.12 683.40 C 413.74 685.31 412.23 686.99 410.19 687.06 Z" />
<path fill="#b07bfd" opacity="1.00" d=" M 453.61 692.61 C 455.49 689.86 457.63 686.82 461.09 686.09 C 458.74 688.16 456.88 692.32 453.61 692.61 Z" />
<path fill="#b07bfd" opacity="1.00" d=" M 405.31 691.04 C 405.26 689.33 407.44 687.16 409.17 687.32 C 408.84 689.24 407.31 690.87 405.31 691.04 Z" />
<path fill="#b07bfd" opacity="1.00" d=" M 473.39 689.26 C 473.84 689.23 474.74 689.16 475.19 689.12 C 472.94 692.78 470.11 696.49 465.94 698.01 C 468.11 694.83 471.59 692.72 473.39 689.26 Z" />
<path fill="#b07bfd" opacity="1.00" d=" M 624.98 693.63 C 626.10 692.09 627.89 691.12 629.80 691.06 C 629.83 693.03 626.64 694.35 624.98 693.63 Z" />
<path fill="#b07bfd" opacity="1.00" d=" M 439.55 703.50 C 444.28 700.31 447.98 695.71 452.98 692.97 C 448.42 699.41 441.34 703.37 435.59 708.66 L 434.61 708.72 C 435.73 706.54 437.56 704.88 439.55 703.50 Z" />
<path fill="#b07bfd" opacity="1.00" d=" M 512.78 746.22 C 522.92 745.73 533.07 745.97 543.22 746.28 C 533.13 747.37 522.85 747.48 512.78 746.22 Z" />
<path fill="#b07bfd" opacity="1.00" d=" M 375.87 779.97 C 378.81 777.99 382.03 776.45 385.34 775.22 C 383.62 778.57 379.20 779.13 375.87 779.97 Z" />
</g>
<g id="#f9f7feff">
<path fill="#f9f7fe" opacity="1.00" d=" M 743.10 215.14 C 752.44 210.71 763.43 209.25 773.37 212.55 C 780.90 214.83 785.81 221.45 790.83 227.09 C 792.12 231.99 793.74 236.87 793.98 241.98 C 794.23 258.89 793.61 275.82 794.29 292.74 C 793.77 357.56 793.89 422.40 794.22 487.22 C 794.34 532.75 780.84 577.83 757.92 616.96 C 754.83 620.40 753.69 625.11 750.40 628.40 C 747.40 631.54 746.14 635.96 742.88 638.89 C 739.07 643.13 736.44 648.22 731.95 651.82 C 729.80 654.40 725.72 655.62 724.99 659.11 C 720.41 664.42 715.35 669.31 710.12 673.98 C 706.96 674.41 705.94 678.00 703.86 679.98 C 695.33 687.87 686.04 695.04 676.05 701.04 C 661.84 711.30 646.01 718.99 629.97 725.94 C 602.37 737.06 573.08 745.10 543.22 746.28 C 533.07 745.97 522.92 745.73 512.78 746.22 C 495.27 745.58 477.96 742.21 461.00 737.98 C 456.74 737.15 452.80 734.89 448.45 734.59 C 446.05 737.24 442.66 738.63 439.99 740.99 C 431.56 748.60 421.00 753.22 411.77 759.68 C 402.58 764.23 394.61 770.83 385.34 775.22 C 382.03 776.45 378.81 777.99 375.87 779.97 C 361.49 787.55 343.04 787.05 328.99 778.90 C 324.94 774.94 319.80 772.14 316.69 767.27 C 307.69 757.63 306.71 742.98 311.02 730.99 C 317.19 716.66 331.72 709.40 344.16 701.42 C 348.00 699.16 351.77 696.80 355.63 694.58 C 356.73 693.76 358.40 693.00 357.86 691.34 C 342.64 686.38 328.54 678.71 314.21 671.71 C 311.80 670.20 309.38 668.67 307.30 666.72 C 303.58 663.04 298.46 661.06 294.66 657.38 C 253.16 626.07 229.81 574.48 228.99 523.01 C 229.05 468.00 228.91 413.00 229.06 358.00 C 228.55 338.76 249.50 322.30 268.11 327.85 C 282.51 332.60 295.32 340.95 309.28 346.73 C 329.59 356.68 349.76 366.91 370.00 377.01 C 386.32 386.30 403.54 393.99 418.95 404.85 C 423.49 397.31 429.71 391.03 435.31 384.29 C 448.40 371.04 461.21 357.34 476.40 346.43 C 506.93 322.36 542.09 305.32 577.28 289.26 C 632.14 263.64 687.42 238.93 743.10 215.14 M 733.89 251.76 C 729.16 252.99 724.72 255.20 720.32 257.29 C 718.10 257.18 714.93 258.22 714.04 260.23 C 697.23 267.47 680.21 274.53 663.89 282.76 C 655.52 285.42 647.68 289.79 639.89 293.76 C 634.88 294.46 631.31 298.75 626.31 299.43 C 620.72 302.22 614.92 304.55 609.32 307.29 C 607.10 307.18 603.93 308.22 603.04 310.23 C 599.32 311.54 595.88 313.62 592.33 315.32 C 590.11 315.15 586.94 316.23 586.04 318.22 C 578.29 321.47 570.93 325.71 563.33 329.31 C 559.77 329.52 554.98 331.55 553.10 334.17 L 552.41 334.39 C 550.11 334.84 546.79 335.68 546.02 338.15 C 540.61 340.10 536.35 344.00 531.33 346.42 C 521.97 351.31 513.61 358.04 504.48 363.53 C 503.51 365.05 502.23 366.15 500.38 366.35 C 497.94 366.47 496.22 369.25 494.93 371.16 L 494.12 371.44 C 492.41 371.11 490.24 373.36 490.29 375.00 L 489.44 375.19 C 484.15 377.61 479.65 382.50 476.02 387.05 L 475.41 387.41 C 470.48 388.94 467.50 395.11 463.24 398.23 C 462.12 400.25 458.27 400.34 459.18 403.23 C 458.09 404.41 456.62 405.43 456.14 407.01 C 453.72 408.35 450.97 410.66 450.24 413.29 C 449.03 414.06 449.06 415.52 448.69 416.75 C 447.91 417.71 446.14 417.89 446.04 419.31 C 444.37 419.21 442.10 421.40 442.44 423.12 C 442.50 425.57 440.34 426.44 439.17 428.08 C 435.70 429.88 434.28 434.79 431.66 437.68 C 429.57 440.28 434.15 441.88 435.27 443.69 C 442.17 447.80 445.52 455.59 452.06 460.11 L 452.46 460.85 C 452.11 462.57 454.34 464.68 455.96 464.78 C 456.09 468.19 459.62 470.09 461.00 473.00 C 465.83 478.68 468.99 485.67 473.32 491.58 C 474.37 494.77 475.47 499.07 478.11 501.03 C 478.88 504.01 480.29 506.79 481.41 509.67 C 488.37 525.18 491.75 542.00 494.40 558.69 C 494.42 561.12 492.70 566.12 495.03 567.00 C 495.03 573.00 494.91 579.00 494.95 585.02 L 494.00 585.01 C 494.02 586.80 494.06 590.39 494.08 592.18 C 501.77 585.20 508.70 577.42 516.28 570.33 C 517.66 568.98 520.80 568.35 519.82 565.78 C 522.16 563.19 525.11 560.98 526.87 558.01 C 531.41 555.37 534.02 550.15 538.77 547.69 C 538.79 547.22 538.84 546.28 538.87 545.81 C 539.12 545.36 539.62 544.46 539.88 544.01 C 542.64 542.27 545.68 539.67 546.75 536.70 C 547.04 536.28 547.61 535.44 547.90 535.02 C 550.57 533.23 553.87 530.68 554.64 527.68 L 555.00 527.02 C 558.12 525.16 559.80 521.80 562.22 519.21 C 567.52 512.20 574.48 506.08 578.82 498.56 L 579.01 497.71 C 580.68 497.69 582.83 495.55 582.68 493.82 L 582.95 492.80 C 584.63 492.66 586.79 490.60 586.67 488.83 L 586.94 487.81 C 588.61 487.71 590.82 485.62 590.60 483.86 C 594.83 478.55 600.09 473.22 603.02 467.09 C 605.31 465.67 607.04 463.14 607.70 460.59 C 611.29 458.09 613.16 453.90 614.94 450.06 C 619.16 447.93 619.76 442.10 623.99 439.99 C 625.95 438.90 626.79 436.71 628.03 434.97 C 629.02 434.78 629.94 434.40 630.78 433.83 C 633.60 434.09 636.44 434.07 639.27 433.77 C 640.58 434.20 641.81 434.91 643.23 435.04 C 643.35 436.65 645.34 438.64 646.96 438.77 C 647.26 440.96 648.27 442.96 648.89 445.07 C 649.87 451.09 645.92 456.07 644.52 461.64 C 640.37 467.83 637.99 474.98 634.55 481.52 C 630.24 485.38 630.05 492.05 626.05 496.08 C 624.01 498.61 624.28 502.60 621.41 504.47 C 609.56 525.35 596.29 545.58 582.81 565.84 C 578.73 571.73 574.75 577.67 570.09 583.05 C 568.83 585.81 567.03 588.21 565.05 590.32 C 563.58 590.46 560.41 592.00 561.28 593.93 C 561.86 597.02 558.42 597.45 557.92 599.96 C 557.74 601.67 555.17 601.62 555.03 603.31 C 553.33 603.26 551.16 605.43 551.32 607.17 L 551.06 608.19 C 549.38 608.28 547.19 610.36 547.40 612.12 C 546.20 614.47 544.40 616.26 542.99 618.25 C 541.34 618.28 539.16 620.40 539.40 622.12 C 539.07 622.59 538.43 623.53 538.11 624.00 C 536.42 625.67 532.80 626.35 533.12 629.18 C 532.87 629.64 532.37 630.54 532.13 631.00 C 530.42 632.66 526.81 633.35 527.11 636.18 C 526.87 636.63 526.37 637.54 526.13 637.99 C 523.65 639.51 521.72 641.80 519.15 643.23 C 519.14 643.71 519.13 644.67 519.12 645.15 C 518.35 646.03 517.51 646.88 517.05 647.97 C 513.12 650.64 510.45 654.88 506.33 657.33 C 505.16 657.91 504.77 658.87 505.18 660.22 C 503.85 661.53 502.56 662.87 501.24 664.18 C 500.75 664.20 499.77 664.22 499.28 664.23 C 491.51 671.85 484.56 680.28 476.96 688.04 C 476.51 688.31 475.63 688.85 475.19 689.12 C 474.74 689.16 473.84 689.23 473.39 689.26 C 471.59 692.72 468.11 694.83 465.94 698.01 C 464.40 698.68 463.91 700.54 462.74 701.66 C 460.68 702.07 457.63 703.25 458.05 705.84 C 458.90 706.49 459.84 706.95 460.90 707.21 C 502.03 720.40 546.93 720.62 588.31 708.41 C 600.89 704.65 613.72 700.40 624.98 693.63 C 626.64 694.35 629.83 693.03 629.80 691.06 C 630.27 690.95 631.20 690.74 631.67 690.64 C 647.40 682.94 662.72 673.55 675.60 661.71 C 678.00 661.47 679.78 658.83 681.01 656.88 C 681.46 656.62 682.36 656.12 682.81 655.87 C 683.28 655.84 684.22 655.79 684.69 655.77 C 690.17 648.71 696.71 642.17 703.77 636.69 C 703.79 636.22 703.83 635.27 703.85 634.80 C 704.14 634.29 704.72 633.26 705.00 632.75 C 706.63 632.72 708.87 630.59 708.56 628.88 L 708.84 628.07 C 710.78 626.77 713.48 625.04 713.71 622.60 C 716.83 620.38 718.68 616.93 720.94 613.96 C 740.05 586.61 753.83 555.31 759.50 522.35 C 760.66 514.88 762.80 507.46 761.99 499.82 C 764.23 499.07 763.35 494.85 762.55 493.04 C 763.40 489.43 762.87 485.64 763.01 482.00 L 763.96 481.98 C 763.88 407.24 764.32 332.48 763.73 257.75 C 763.72 251.72 765.48 244.37 762.79 239.11 C 752.81 242.16 743.19 247.01 733.89 251.76 M 261.18 356.03 C 259.41 359.74 260.29 364.03 259.98 367.99 C 260.21 383.25 259.51 398.53 260.47 413.76 C 259.48 428.82 260.23 443.92 260.00 459.00 C 260.17 468.74 259.23 478.64 261.33 488.24 C 261.05 514.46 258.69 541.63 266.86 567.04 C 271.54 583.26 279.17 598.90 290.14 611.78 C 290.17 612.24 290.23 613.16 290.26 613.61 C 296.78 618.29 302.33 624.53 307.31 630.76 C 307.80 630.80 308.79 630.88 309.28 630.92 L 310.25 631.06 C 310.58 632.48 312.05 635.61 314.02 634.68 C 315.81 637.12 318.10 638.93 320.94 640.11 C 343.45 655.39 369.23 665.44 395.70 671.35 C 399.44 672.17 403.12 673.52 407.05 672.99 C 407.18 670.20 405.23 667.94 404.61 665.32 C 394.84 639.33 387.27 612.12 385.59 584.30 C 385.59 581.87 387.28 576.87 384.97 576.00 C 385.01 565.33 385.00 554.66 384.97 544.00 C 387.31 543.13 385.52 538.17 385.69 535.73 C 387.28 527.76 387.78 519.61 389.55 511.66 C 390.18 507.01 392.09 502.54 392.04 497.81 C 393.53 497.02 394.56 493.77 393.60 492.04 L 393.65 491.20 L 394.63 490.89 C 397.88 478.74 403.86 467.53 407.72 455.62 C 408.75 455.16 409.08 454.40 408.73 453.34 C 411.84 451.79 412.13 447.71 414.23 445.22 C 415.14 443.23 417.64 441.66 416.87 439.23 C 413.40 437.08 410.47 434.01 406.87 432.16 C 405.21 432.07 403.69 431.70 402.96 430.07 C 394.79 423.90 385.58 419.44 377.00 414.13 C 376.14 411.68 372.86 410.79 370.53 410.41 C 354.51 401.89 337.98 394.32 321.94 385.85 C 319.07 383.26 314.75 381.97 311.17 380.31 C 309.40 379.62 307.72 378.75 305.99 377.98 C 305.05 376.66 299.99 373.77 299.79 376.75 C 298.16 377.46 299.62 374.06 298.02 373.92 C 293.18 370.35 287.20 368.93 282.00 366.00 C 275.01 362.79 268.40 358.60 261.18 356.03 M 630.71 447.72 C 623.91 457.27 616.99 466.79 610.63 476.66 C 609.34 479.39 605.56 481.23 605.36 484.38 C 605.38 487.35 601.84 487.84 601.63 490.71 C 598.12 493.78 596.29 498.14 593.04 501.31 C 591.37 501.20 589.09 503.41 589.46 505.13 L 589.14 505.92 C 585.46 507.91 583.72 512.04 581.06 515.07 C 574.39 522.74 568.46 531.04 561.25 538.25 C 553.23 546.85 546.29 556.59 536.99 563.93 C 535.44 564.91 536.26 567.50 534.21 568.23 C 526.69 575.71 519.52 583.59 511.24 590.24 C 508.37 593.95 502.99 596.34 502.18 601.24 C 499.20 604.63 495.11 607.22 493.60 611.66 C 493.17 613.56 490.33 612.27 490.09 614.02 C 487.48 615.26 485.63 617.76 483.96 620.04 C 479.58 621.44 479.56 627.52 475.30 628.40 C 473.02 630.32 470.54 632.36 469.13 634.99 C 467.00 636.12 465.10 637.98 464.00 640.13 C 462.44 640.65 461.40 642.07 460.24 643.17 C 459.77 643.19 458.85 643.23 458.39 643.24 C 456.86 646.31 453.82 648.21 451.96 651.04 C 451.52 651.31 450.63 651.85 450.19 652.12 C 449.74 652.16 448.84 652.23 448.39 652.26 C 446.32 656.12 442.36 658.43 439.94 662.01 C 439.56 662.34 438.78 662.99 438.39 663.32 C 435.42 663.47 433.76 667.10 431.90 669.08 L 431.13 669.44 C 429.41 669.12 427.28 671.35 427.25 672.99 C 426.72 673.34 425.66 674.05 425.13 674.41 C 423.41 674.15 421.29 676.34 421.25 677.98 C 419.38 678.16 419.04 680.58 417.75 681.68 C 416.43 682.05 414.93 682.12 414.12 683.40 C 412.37 683.18 410.28 685.38 410.19 687.06 L 409.17 687.32 C 407.44 687.16 405.26 689.33 405.31 691.04 C 403.62 691.17 403.67 693.74 401.96 693.92 C 399.87 693.86 399.76 696.61 397.94 696.89 C 394.85 697.02 394.75 701.47 391.44 701.46 C 390.53 703.12 389.19 704.20 387.25 704.32 C 385.30 708.67 380.06 708.78 377.52 712.48 C 370.44 717.03 364.27 722.90 356.32 726.35 C 352.19 729.67 347.81 732.67 343.20 735.20 C 340.89 738.77 339.01 742.52 339.01 746.95 C 341.00 752.41 345.97 756.95 352.00 757.03 C 361.11 757.50 368.57 751.40 375.98 747.02 C 382.72 744.05 388.66 739.69 394.94 735.92 C 408.62 727.57 422.41 719.01 434.61 708.72 L 435.59 708.66 C 441.34 703.37 448.42 699.41 452.98 692.97 L 453.61 692.61 C 456.88 692.32 458.74 688.16 461.09 686.09 L 461.86 685.79 C 464.68 686.77 464.96 683.06 466.75 681.75 C 478.22 670.88 488.58 658.68 500.78 648.69 C 500.79 648.20 500.80 647.24 500.81 646.75 C 502.22 645.24 504.06 643.94 504.86 642.00 C 507.97 639.94 511.34 636.97 512.75 633.69 C 513.58 632.92 514.61 632.16 514.89 631.01 C 516.54 630.02 517.99 628.72 519.53 627.58 C 521.01 622.92 526.00 620.51 528.15 616.17 C 531.87 610.34 537.93 605.75 540.68 599.59 C 542.39 598.03 544.81 596.61 545.05 594.10 C 549.00 590.80 552.68 586.03 554.57 581.55 L 554.94 580.95 C 557.95 578.50 561.50 574.57 562.59 570.59 L 562.88 569.94 C 565.39 568.97 566.97 566.03 567.70 563.59 C 569.17 562.42 570.92 561.15 571.09 559.12 C 573.99 557.23 574.86 553.52 576.95 550.94 C 583.06 541.12 590.94 532.04 595.71 521.61 C 601.86 513.08 607.52 503.71 612.05 494.12 C 614.06 492.98 614.53 490.55 615.78 488.78 C 621.86 479.57 626.43 469.50 631.97 459.99 C 633.26 457.07 635.48 454.30 635.89 451.12 C 636.92 449.99 637.10 448.46 637.09 447.00 C 635.96 443.37 632.09 445.40 630.71 447.72 M 426.23 450.28 C 423.32 450.93 423.29 454.23 422.58 456.57 C 421.30 457.34 420.63 458.70 419.95 459.98 C 408.14 484.51 400.27 510.99 398.01 538.17 C 395.76 538.92 396.64 543.13 397.45 544.96 C 396.25 554.77 397.05 564.85 397.38 574.70 C 397.42 577.13 395.72 582.09 398.00 583.00 C 399.81 610.85 406.70 638.45 418.19 663.91 C 421.24 664.29 422.54 660.32 424.58 658.70 C 426.99 658.50 428.79 655.83 430.00 653.87 C 431.15 653.58 431.93 652.59 432.79 651.86 C 435.78 651.85 437.06 647.87 439.00 645.87 C 440.56 645.34 441.59 643.91 442.75 642.82 C 443.22 642.81 444.15 642.77 444.61 642.75 C 447.21 638.11 452.10 635.32 455.03 630.95 C 456.50 630.24 457.61 628.96 458.77 627.83 C 459.25 627.82 460.21 627.79 460.69 627.78 C 463.43 623.25 467.55 619.76 471.86 616.78 C 471.85 616.28 471.84 615.29 471.84 614.79 C 473.32 613.30 474.76 611.75 476.10 610.13 C 481.88 609.56 483.34 601.46 481.78 596.76 C 482.02 594.16 482.10 591.58 482.02 589.00 L 482.98 588.99 C 483.04 580.66 483.04 572.33 482.98 564.01 L 482.01 563.99 C 480.63 542.71 474.45 522.04 465.01 502.99 C 460.83 493.59 454.30 485.59 449.12 476.85 C 445.91 474.82 445.77 470.33 442.39 468.58 C 440.42 467.88 441.56 465.18 439.71 464.39 C 439.46 461.99 436.83 460.19 434.87 459.00 C 432.72 455.60 429.41 452.69 426.23 450.28 Z" />
</g>
</svg>
