<?xml version="1.0" standalone="no"?><!DOCTYPE svg PUBLIC "-//W3C//DTD SVG 1.1//EN" "http://www.w3.org/Graphics/SVG/1.1/DTD/svg11.dtd"><svg t="1764385901736" class="icon" viewBox="0 0 4096 1024" version="1.1" xmlns="http://www.w3.org/2000/svg" p-id="9947" xmlns:xlink="http://www.w3.org/1999/xlink" width="800" height="200"><path d="M585.142857 198.948571h298.422857V497.371429H585.142857V198.948571zM912.822857 198.948571h298.422857V497.371429H912.822857V198.948571zM1890.011429 315.977143c11.702857-2.925714 26.331429 2.925714 35.108571 11.702857 8.777143 11.702857 11.702857 29.257143 5.851429 40.96-8.777143 14.628571-26.331429 20.48-43.885715 17.554286-17.554286-2.925714-29.257143-17.554286-29.257143-35.108572-2.925714-17.554286 14.628571-32.182857 32.182858-35.108571zM1395.565714 324.754286h93.622857c29.257143 73.142857 58.514286 146.285714 87.771429 222.354285 8.777143 17.554286 14.628571 38.034286 23.405714 55.588572 38.034286-93.622857 76.068571-184.32 111.177143-277.942857h90.697143v374.491428h-64.365714v-277.942857-11.702857c0 2.925714-2.925714 2.925714-2.925715 5.851429-38.034286 93.622857-76.068571 187.245714-111.177142 283.794285h-46.811429c-38.034286-93.622857-76.068571-190.171429-114.102857-283.794285 0-2.925714-2.925714-2.925714-2.925714-5.851429v286.72h-61.44c-2.925714-122.88-2.925714-245.76-2.925715-371.565714zM2065.554286 430.08c32.182857-8.777143 64.365714-8.777143 96.548571 0 5.851429 2.925714 11.702857 2.925714 17.554286 8.777143v61.44c-20.48-14.628571-46.811429-26.331429-73.142857-23.405714-20.48 2.925714-40.96 11.702857-52.662857 29.257142-14.628571 20.48-20.48 49.737143-17.554286 73.142858 2.925714 20.48 11.702857 40.96 26.331428 52.662857 17.554286 14.628571 38.034286 20.48 61.44 17.554285 20.48-2.925714 40.96-11.702857 58.514286-23.405714v58.514286c-26.331429 14.628571-58.514286 20.48-87.771428 17.554286-32.182857-2.925714-61.44-14.628571-84.845715-35.108572-23.405714-23.405714-38.034286-55.588571-38.034285-90.697143-2.925714-35.108571 5.851429-70.217143 26.331428-99.474285 11.702857-20.48 38.034286-38.034286 67.291429-46.811429zM2767.725714 427.154286c29.257143-5.851429 61.44 0 87.771429 8.777143v58.514285c-20.48-14.628571-43.885714-20.48-67.291429-20.48-11.702857 0-26.331429 5.851429-29.257143 17.554286-2.925714 11.702857 0 26.331429 8.777143 32.182857 17.554286 11.702857 40.96 17.554286 58.514286 29.257143 14.628571 8.777143 29.257143 20.48 38.034286 35.108571 14.628571 29.257143 8.777143 67.291429-17.554286 90.697143-23.405714 23.405714-58.514286 29.257143-90.697143 26.331429-23.405714 0-43.885714-5.851429-64.365714-14.628572v-61.44c17.554286 11.702857 38.034286 20.48 58.514286 26.331429 14.628571 2.925714 29.257143 2.925714 43.885714-2.925714 11.702857-5.851429 14.628571-26.331429 8.777143-35.108572-5.851429-8.777143-17.554286-14.628571-29.257143-17.554285-17.554286-8.777143-38.034286-14.628571-55.588572-29.257143-11.702857-8.777143-20.48-23.405714-23.405714-35.108572-5.851429-20.48-2.925714-46.811429 8.777143-64.365714 14.628571-26.331429 40.96-40.96 64.365714-43.885714zM2323.017143 435.931429c17.554286-11.702857 40.96-11.702857 58.514286-5.851429v64.365714c-11.702857-8.777143-29.257143-11.702857-43.885715-8.777143-17.554286 2.925714-32.182857 14.628571-40.96 32.182858-8.777143 17.554286-8.777143 35.108571-8.777143 55.588571V702.171429H2223.542857v-269.165715h64.365714v46.811429c8.777143-20.48 20.48-35.108571 35.108572-43.885714zM1863.68 430.08h64.365714v269.165714h-64.365714v-269.165714zM2650.697143 494.445714c-11.702857-23.405714-32.182857-46.811429-55.588572-55.588571-29.257143-11.702857-61.44-14.628571-90.697142-11.702857-32.182857 2.925714-64.365714 20.48-84.845715 43.885714-17.554286 23.405714-29.257143 52.662857-29.257143 81.92-2.925714 35.108571 2.925714 70.217143 23.405715 99.474286 17.554286 26.331429 43.885714 40.96 73.142857 49.737143 23.405714 5.851429 49.737143 5.851429 76.068571 0 29.257143-5.851429 55.588571-20.48 73.142857-46.811429 17.554286-23.405714 26.331429-49.737143 29.257143-78.994286 0-26.331429-2.925714-55.588571-14.628571-81.92z m-64.365714 122.88c-5.851429 14.628571-17.554286 26.331429-32.182858 32.182857-17.554286 5.851429-35.108571 5.851429-52.662857 2.925715-17.554286-5.851429-32.182857-17.554286-40.96-32.182857-11.702857-20.48-11.702857-43.885714-8.777143-67.291429 2.925714-20.48 8.777143-40.96 23.405715-55.588571 11.702857-11.702857 26.331429-14.628571 40.96-17.554286 20.48 0 40.96 2.925714 52.662857 17.554286 14.628571 14.628571 20.48 35.108571 23.405714 55.588571 5.851429 20.48 5.851429 43.885714-5.851428 64.365714zM3165.622857 500.297143c-8.777143-26.331429-29.257143-49.737143-55.588571-61.44-29.257143-14.628571-64.365714-17.554286-96.548572-11.702857-26.331429 2.925714-52.662857 11.702857-70.217143 29.257143-23.405714 20.48-38.034286 52.662857-40.96 81.92-2.925714 32.182857-2.925714 64.365714 8.777143 93.622857s35.108571 52.662857 64.365715 64.365714c29.257143 11.702857 61.44 11.702857 90.697142 8.777143 32.182857-5.851429 58.514286-20.48 78.994286-46.811429 20.48-26.331429 29.257143-58.514286 29.257143-90.697143 0-23.405714-2.925714-46.811429-8.777143-67.291428z m-58.514286 90.697143c-2.925714 14.628571-8.777143 29.257143-17.554285 38.034285-8.777143 11.702857-23.405714 17.554286-38.034286 20.48-14.628571 2.925714-32.182857 0-46.811429-5.851428s-26.331429-20.48-35.108571-35.108572c-8.777143-17.554286-8.777143-38.034286-8.777143-58.514285 2.925714-20.48 5.851429-38.034286 20.48-52.662857 11.702857-14.628571 29.257143-20.48 46.811429-23.405715 17.554286 0 38.034286 2.925714 52.662857 14.628572 11.702857 11.702857 20.48 26.331429 23.405714 43.885714 5.851429 20.48 5.851429 40.96 2.925714 58.514286zM3510.857143 482.742857v-52.662857h-64.365714v-81.92c-20.48 5.851429-40.96 14.628571-64.365715 20.48v61.44h-93.622857v-46.811429c2.925714-11.702857 8.777143-26.331429 20.48-29.257142 14.628571-5.851429 32.182857-2.925714 46.811429 2.925714v-55.588572c-32.182857-8.777143-67.291429-5.851429-93.622857 11.702858-17.554286 11.702857-29.257143 29.257143-35.108572 49.737142-5.851429 23.405714-2.925714 46.811429-5.851428 67.291429h-43.885715v52.662857h43.885715v216.502857h64.365714v-216.502857h93.622857v137.508572c0 20.48 2.925714 43.885714 17.554286 61.44 11.702857 14.628571 32.182857 20.48 49.737143 23.405714 20.48 0 40.96 0 58.514285-8.777143V643.657143c-14.628571 8.777143-32.182857 14.628571-49.737143 5.851428-8.777143-5.851429-11.702857-14.628571-14.628571-26.331428-2.925714-17.554286 0-32.182857 0-49.737143v-90.697143h70.217143zM585.142857 526.628571h298.422857v298.422858H585.142857V526.628571zM912.822857 526.628571h298.422857v298.422858H912.822857V526.628571z" fill="#ffffff" p-id="9948"></path></svg>