<?xml version="1.0" standalone="no"?><!DOCTYPE svg PUBLIC "-//W3C//DTD SVG 1.1//EN" "http://www.w3.org/Graphics/SVG/1.1/DTD/svg11.dtd"><svg t="1764168522242" class="icon" viewBox="0 0 1024 1024" version="1.1" xmlns="http://www.w3.org/2000/svg" p-id="6654" xmlns:xlink="http://www.w3.org/1999/xlink" width="200" height="200"><path d="M282.879823 0h671.99958a68.991957 68.991957 0 0 1 68.671957 61.183962l0.448 7.487995v674.751578a68.991957 68.991957 0 0 1-61.631961 68.223958l-7.551996 0.383999h-144.447909v143.295911a68.991957 68.991957 0 0 1-61.695962 68.287957l-7.487995 0.384H69.119957a68.991957 68.991957 0 0 1-68.735957-61.183962L0 955.327403V280.575825c0.192-35.519978 27.135983-64.63996 61.631961-68.223958l7.551996-0.383999h144.447909V68.671957c0.128-35.519978 27.135983-64.63996 61.695962-68.287957L282.815823 0h671.99958z m443.007723 295.743815H84.351947v644.479597h641.535599V295.679815zM939.519413 83.839948H298.047814v128.12792h443.199723a68.991957 68.991957 0 0 1 68.735957 61.119961l0.384 7.487996v447.67972h129.215919V83.775948z" fill="#ffffff" p-id="6655"></path></svg>